<?xml version="1.0" encoding="utf-8" standalone="no"?>
<!DOCTYPE svg PUBLIC "-//W3C//DTD SVG 1.1//EN"
  "http://www.w3.org/Graphics/SVG/1.1/DTD/svg11.dtd">
<!-- Created with matplotlib (http://matplotlib.org/) -->
<svg height="576pt" version="1.1" viewBox="0 0 864 576" width="864pt" xmlns="http://www.w3.org/2000/svg" xmlns:xlink="http://www.w3.org/1999/xlink">
 <defs>
  <style type="text/css">
*{stroke-linecap:butt;stroke-linejoin:round;}
  </style>
 </defs>
 <g id="figure_1">
  <g id="patch_1">
   <path d="M 0 576 
L 864 576 
L 864 0 
L 0 0 
z
" style="fill:#ffffff;"/>
  </g>
  <g id="axes_1">
   <g id="patch_2">
    <path d="M 108 504 
L 777.6 504 
L 777.6 69.12 
L 108 69.12 
z
" style="fill:#ffffff;"/>
   </g>
   <g id="matplotlib.axis_1">
    <g id="xtick_1">
     <g id="line2d_1">
      <defs>
       <path d="M 0 0 
L 0 3.5 
" id="m47cadebdeb" style="stroke:#000000;stroke-width:0.8;"/>
      </defs>
      <g>
       <use style="stroke:#000000;stroke-width:0.8;" x="138.436364" xlink:href="#m47cadebdeb" y="504"/>
      </g>
     </g>
     <g id="text_1">
      <!-- 0 -->
      <defs>
       <path d="M 31.78125 66.40625 
Q 24.171875 66.40625 20.328125 58.90625 
Q 16.5 51.421875 16.5 36.375 
Q 16.5 21.390625 20.328125 13.890625 
Q 24.171875 6.390625 31.78125 6.390625 
Q 39.453125 6.390625 43.28125 13.890625 
Q 47.125 21.390625 47.125 36.375 
Q 47.125 51.421875 43.28125 58.90625 
Q 39.453125 66.40625 31.78125 66.40625 
z
M 31.78125 74.21875 
Q 44.046875 74.21875 50.515625 64.515625 
Q 56.984375 54.828125 56.984375 36.375 
Q 56.984375 17.96875 50.515625 8.265625 
Q 44.046875 -1.421875 31.78125 -1.421875 
Q 19.53125 -1.421875 13.0625 8.265625 
Q 6.59375 17.96875 6.59375 36.375 
Q 6.59375 54.828125 13.0625 64.515625 
Q 19.53125 74.21875 31.78125 74.21875 
z
" id="DejaVuSans-30"/>
      </defs>
      <g transform="translate(133.982614 521.637812)scale(0.14 -0.14)">
       <use xlink:href="#DejaVuSans-30"/>
      </g>
     </g>
    </g>
    <g id="xtick_2">
     <g id="line2d_2">
      <g>
       <use style="stroke:#000000;stroke-width:0.8;" x="214.527273" xlink:href="#m47cadebdeb" y="504"/>
      </g>
     </g>
     <g id="text_2">
      <!-- 1 -->
      <defs>
       <path d="M 12.40625 8.296875 
L 28.515625 8.296875 
L 28.515625 63.921875 
L 10.984375 60.40625 
L 10.984375 69.390625 
L 28.421875 72.90625 
L 38.28125 72.90625 
L 38.28125 8.296875 
L 54.390625 8.296875 
L 54.390625 0 
L 12.40625 0 
z
" id="DejaVuSans-31"/>
      </defs>
      <g transform="translate(210.073523 521.637812)scale(0.14 -0.14)">
       <use xlink:href="#DejaVuSans-31"/>
      </g>
     </g>
    </g>
    <g id="xtick_3">
     <g id="line2d_3">
      <g>
       <use style="stroke:#000000;stroke-width:0.8;" x="290.618182" xlink:href="#m47cadebdeb" y="504"/>
      </g>
     </g>
     <g id="text_3">
      <!-- 2 -->
      <defs>
       <path d="M 19.1875 8.296875 
L 53.609375 8.296875 
L 53.609375 0 
L 7.328125 0 
L 7.328125 8.296875 
Q 12.9375 14.109375 22.625 23.890625 
Q 32.328125 33.6875 34.8125 36.53125 
Q 39.546875 41.84375 41.421875 45.53125 
Q 43.3125 49.21875 43.3125 52.78125 
Q 43.3125 58.59375 39.234375 62.25 
Q 35.15625 65.921875 28.609375 65.921875 
Q 23.96875 65.921875 18.8125 64.3125 
Q 13.671875 62.703125 7.8125 59.421875 
L 7.8125 69.390625 
Q 13.765625 71.78125 18.9375 73 
Q 24.125 74.21875 28.421875 74.21875 
Q 39.75 74.21875 46.484375 68.546875 
Q 53.21875 62.890625 53.21875 53.421875 
Q 53.21875 48.921875 51.53125 44.890625 
Q 49.859375 40.875 45.40625 35.40625 
Q 44.1875 33.984375 37.640625 27.21875 
Q 31.109375 20.453125 19.1875 8.296875 
z
" id="DejaVuSans-32"/>
      </defs>
      <g transform="translate(286.164432 521.637812)scale(0.14 -0.14)">
       <use xlink:href="#DejaVuSans-32"/>
      </g>
     </g>
    </g>
    <g id="xtick_4">
     <g id="line2d_4">
      <g>
       <use style="stroke:#000000;stroke-width:0.8;" x="366.709091" xlink:href="#m47cadebdeb" y="504"/>
      </g>
     </g>
     <g id="text_4">
      <!-- 3 -->
      <defs>
       <path d="M 40.578125 39.3125 
Q 47.65625 37.796875 51.625 33 
Q 55.609375 28.21875 55.609375 21.1875 
Q 55.609375 10.40625 48.1875 4.484375 
Q 40.765625 -1.421875 27.09375 -1.421875 
Q 22.515625 -1.421875 17.65625 -0.515625 
Q 12.796875 0.390625 7.625 2.203125 
L 7.625 11.71875 
Q 11.71875 9.328125 16.59375 8.109375 
Q 21.484375 6.890625 26.8125 6.890625 
Q 36.078125 6.890625 40.9375 10.546875 
Q 45.796875 14.203125 45.796875 21.1875 
Q 45.796875 27.640625 41.28125 31.265625 
Q 36.765625 34.90625 28.71875 34.90625 
L 20.21875 34.90625 
L 20.21875 43.015625 
L 29.109375 43.015625 
Q 36.375 43.015625 40.234375 45.921875 
Q 44.09375 48.828125 44.09375 54.296875 
Q 44.09375 59.90625 40.109375 62.90625 
Q 36.140625 65.921875 28.71875 65.921875 
Q 24.65625 65.921875 20.015625 65.03125 
Q 15.375 64.15625 9.8125 62.3125 
L 9.8125 71.09375 
Q 15.4375 72.65625 20.34375 73.4375 
Q 25.25 74.21875 29.59375 74.21875 
Q 40.828125 74.21875 47.359375 69.109375 
Q 53.90625 64.015625 53.90625 55.328125 
Q 53.90625 49.265625 50.4375 45.09375 
Q 46.96875 40.921875 40.578125 39.3125 
z
" id="DejaVuSans-33"/>
      </defs>
      <g transform="translate(362.255341 521.637812)scale(0.14 -0.14)">
       <use xlink:href="#DejaVuSans-33"/>
      </g>
     </g>
    </g>
    <g id="xtick_5">
     <g id="line2d_5">
      <g>
       <use style="stroke:#000000;stroke-width:0.8;" x="442.8" xlink:href="#m47cadebdeb" y="504"/>
      </g>
     </g>
     <g id="text_5">
      <!-- 4 -->
      <defs>
       <path d="M 37.796875 64.3125 
L 12.890625 25.390625 
L 37.796875 25.390625 
z
M 35.203125 72.90625 
L 47.609375 72.90625 
L 47.609375 25.390625 
L 58.015625 25.390625 
L 58.015625 17.1875 
L 47.609375 17.1875 
L 47.609375 0 
L 37.796875 0 
L 37.796875 17.1875 
L 4.890625 17.1875 
L 4.890625 26.703125 
z
" id="DejaVuSans-34"/>
      </defs>
      <g transform="translate(438.34625 521.637812)scale(0.14 -0.14)">
       <use xlink:href="#DejaVuSans-34"/>
      </g>
     </g>
    </g>
    <g id="xtick_6">
     <g id="line2d_6">
      <g>
       <use style="stroke:#000000;stroke-width:0.8;" x="518.890909" xlink:href="#m47cadebdeb" y="504"/>
      </g>
     </g>
     <g id="text_6">
      <!-- 5 -->
      <defs>
       <path d="M 10.796875 72.90625 
L 49.515625 72.90625 
L 49.515625 64.59375 
L 19.828125 64.59375 
L 19.828125 46.734375 
Q 21.96875 47.46875 24.109375 47.828125 
Q 26.265625 48.1875 28.421875 48.1875 
Q 40.625 48.1875 47.75 41.5 
Q 54.890625 34.8125 54.890625 23.390625 
Q 54.890625 11.625 47.5625 5.09375 
Q 40.234375 -1.421875 26.90625 -1.421875 
Q 22.3125 -1.421875 17.546875 -0.640625 
Q 12.796875 0.140625 7.71875 1.703125 
L 7.71875 11.625 
Q 12.109375 9.234375 16.796875 8.0625 
Q 21.484375 6.890625 26.703125 6.890625 
Q 35.15625 6.890625 40.078125 11.328125 
Q 45.015625 15.765625 45.015625 23.390625 
Q 45.015625 31 40.078125 35.4375 
Q 35.15625 39.890625 26.703125 39.890625 
Q 22.75 39.890625 18.8125 39.015625 
Q 14.890625 38.140625 10.796875 36.28125 
z
" id="DejaVuSans-35"/>
      </defs>
      <g transform="translate(514.437159 521.637812)scale(0.14 -0.14)">
       <use xlink:href="#DejaVuSans-35"/>
      </g>
     </g>
    </g>
    <g id="xtick_7">
     <g id="line2d_7">
      <g>
       <use style="stroke:#000000;stroke-width:0.8;" x="594.981818" xlink:href="#m47cadebdeb" y="504"/>
      </g>
     </g>
     <g id="text_7">
      <!-- 6 -->
      <defs>
       <path d="M 33.015625 40.375 
Q 26.375 40.375 22.484375 35.828125 
Q 18.609375 31.296875 18.609375 23.390625 
Q 18.609375 15.53125 22.484375 10.953125 
Q 26.375 6.390625 33.015625 6.390625 
Q 39.65625 6.390625 43.53125 10.953125 
Q 47.40625 15.53125 47.40625 23.390625 
Q 47.40625 31.296875 43.53125 35.828125 
Q 39.65625 40.375 33.015625 40.375 
z
M 52.59375 71.296875 
L 52.59375 62.3125 
Q 48.875 64.0625 45.09375 64.984375 
Q 41.3125 65.921875 37.59375 65.921875 
Q 27.828125 65.921875 22.671875 59.328125 
Q 17.53125 52.734375 16.796875 39.40625 
Q 19.671875 43.65625 24.015625 45.921875 
Q 28.375 48.1875 33.59375 48.1875 
Q 44.578125 48.1875 50.953125 41.515625 
Q 57.328125 34.859375 57.328125 23.390625 
Q 57.328125 12.15625 50.6875 5.359375 
Q 44.046875 -1.421875 33.015625 -1.421875 
Q 20.359375 -1.421875 13.671875 8.265625 
Q 6.984375 17.96875 6.984375 36.375 
Q 6.984375 53.65625 15.1875 63.9375 
Q 23.390625 74.21875 37.203125 74.21875 
Q 40.921875 74.21875 44.703125 73.484375 
Q 48.484375 72.75 52.59375 71.296875 
z
" id="DejaVuSans-36"/>
      </defs>
      <g transform="translate(590.528068 521.637812)scale(0.14 -0.14)">
       <use xlink:href="#DejaVuSans-36"/>
      </g>
     </g>
    </g>
    <g id="xtick_8">
     <g id="line2d_8">
      <g>
       <use style="stroke:#000000;stroke-width:0.8;" x="671.072727" xlink:href="#m47cadebdeb" y="504"/>
      </g>
     </g>
     <g id="text_8">
      <!-- 7 -->
      <defs>
       <path d="M 8.203125 72.90625 
L 55.078125 72.90625 
L 55.078125 68.703125 
L 28.609375 0 
L 18.3125 0 
L 43.21875 64.59375 
L 8.203125 64.59375 
z
" id="DejaVuSans-37"/>
      </defs>
      <g transform="translate(666.618977 521.637812)scale(0.14 -0.14)">
       <use xlink:href="#DejaVuSans-37"/>
      </g>
     </g>
    </g>
    <g id="xtick_9">
     <g id="line2d_9">
      <g>
       <use style="stroke:#000000;stroke-width:0.8;" x="747.163636" xlink:href="#m47cadebdeb" y="504"/>
      </g>
     </g>
     <g id="text_9">
      <!-- 8 -->
      <defs>
       <path d="M 31.78125 34.625 
Q 24.75 34.625 20.71875 30.859375 
Q 16.703125 27.09375 16.703125 20.515625 
Q 16.703125 13.921875 20.71875 10.15625 
Q 24.75 6.390625 31.78125 6.390625 
Q 38.8125 6.390625 42.859375 10.171875 
Q 46.921875 13.96875 46.921875 20.515625 
Q 46.921875 27.09375 42.890625 30.859375 
Q 38.875 34.625 31.78125 34.625 
z
M 21.921875 38.8125 
Q 15.578125 40.375 12.03125 44.71875 
Q 8.5 49.078125 8.5 55.328125 
Q 8.5 64.0625 14.71875 69.140625 
Q 20.953125 74.21875 31.78125 74.21875 
Q 42.671875 74.21875 48.875 69.140625 
Q 55.078125 64.0625 55.078125 55.328125 
Q 55.078125 49.078125 51.53125 44.71875 
Q 48 40.375 41.703125 38.8125 
Q 48.828125 37.15625 52.796875 32.3125 
Q 56.78125 27.484375 56.78125 20.515625 
Q 56.78125 9.90625 50.3125 4.234375 
Q 43.84375 -1.421875 31.78125 -1.421875 
Q 19.734375 -1.421875 13.25 4.234375 
Q 6.78125 9.90625 6.78125 20.515625 
Q 6.78125 27.484375 10.78125 32.3125 
Q 14.796875 37.15625 21.921875 38.8125 
z
M 18.3125 54.390625 
Q 18.3125 48.734375 21.84375 45.5625 
Q 25.390625 42.390625 31.78125 42.390625 
Q 38.140625 42.390625 41.71875 45.5625 
Q 45.3125 48.734375 45.3125 54.390625 
Q 45.3125 60.0625 41.71875 63.234375 
Q 38.140625 66.40625 31.78125 66.40625 
Q 25.390625 66.40625 21.84375 63.234375 
Q 18.3125 60.0625 18.3125 54.390625 
z
" id="DejaVuSans-38"/>
      </defs>
      <g transform="translate(742.709886 521.637812)scale(0.14 -0.14)">
       <use xlink:href="#DejaVuSans-38"/>
      </g>
     </g>
    </g>
    <g id="text_10">
     <!-- N -->
     <defs>
      <path d="M 9.8125 72.90625 
L 23.09375 72.90625 
L 55.421875 11.921875 
L 55.421875 72.90625 
L 64.984375 72.90625 
L 64.984375 0 
L 51.703125 0 
L 19.390625 60.984375 
L 19.390625 0 
L 9.8125 0 
z
" id="DejaVuSans-4e"/>
     </defs>
     <g transform="translate(437.563125 539.187188)scale(0.14 -0.14)">
      <use xlink:href="#DejaVuSans-4e"/>
     </g>
    </g>
   </g>
   <g id="matplotlib.axis_2">
    <g id="ytick_1">
     <g id="line2d_10">
      <defs>
       <path d="M 0 0 
L -3.5 0 
" id="m6571695f85" style="stroke:#000000;stroke-width:0.8;"/>
      </defs>
      <g>
       <use style="stroke:#000000;stroke-width:0.8;" x="108" xlink:href="#m6571695f85" y="454.968016"/>
      </g>
     </g>
     <g id="text_11">
      <!-- −1.0 -->
      <defs>
       <path d="M 10.59375 35.5 
L 73.1875 35.5 
L 73.1875 27.203125 
L 10.59375 27.203125 
z
" id="DejaVuSans-2212"/>
       <path d="M 10.6875 12.40625 
L 21 12.40625 
L 21 0 
L 10.6875 0 
z
" id="DejaVuSans-2e"/>
      </defs>
      <g transform="translate(67.004063 460.286922)scale(0.14 -0.14)">
       <use xlink:href="#DejaVuSans-2212"/>
       <use x="83.789062" xlink:href="#DejaVuSans-31"/>
       <use x="147.412109" xlink:href="#DejaVuSans-2e"/>
       <use x="179.199219" xlink:href="#DejaVuSans-30"/>
      </g>
     </g>
    </g>
    <g id="ytick_2">
     <g id="line2d_11">
      <g>
       <use style="stroke:#000000;stroke-width:0.8;" x="108" xlink:href="#m6571695f85" y="361.722613"/>
      </g>
     </g>
     <g id="text_12">
      <!-- −0.5 -->
      <g transform="translate(67.004063 367.04152)scale(0.14 -0.14)">
       <use xlink:href="#DejaVuSans-2212"/>
       <use x="83.789062" xlink:href="#DejaVuSans-30"/>
       <use x="147.412109" xlink:href="#DejaVuSans-2e"/>
       <use x="179.199219" xlink:href="#DejaVuSans-35"/>
      </g>
     </g>
    </g>
    <g id="ytick_3">
     <g id="line2d_12">
      <g>
       <use style="stroke:#000000;stroke-width:0.8;" x="108" xlink:href="#m6571695f85" y="268.47721"/>
      </g>
     </g>
     <g id="text_13">
      <!-- 0.0 -->
      <g transform="translate(78.735625 273.796117)scale(0.14 -0.14)">
       <use xlink:href="#DejaVuSans-30"/>
       <use x="63.623047" xlink:href="#DejaVuSans-2e"/>
       <use x="95.410156" xlink:href="#DejaVuSans-30"/>
      </g>
     </g>
    </g>
    <g id="ytick_4">
     <g id="line2d_13">
      <g>
       <use style="stroke:#000000;stroke-width:0.8;" x="108" xlink:href="#m6571695f85" y="175.231808"/>
      </g>
     </g>
     <g id="text_14">
      <!-- 0.5 -->
      <g transform="translate(78.735625 180.550714)scale(0.14 -0.14)">
       <use xlink:href="#DejaVuSans-30"/>
       <use x="63.623047" xlink:href="#DejaVuSans-2e"/>
       <use x="95.410156" xlink:href="#DejaVuSans-35"/>
      </g>
     </g>
    </g>
    <g id="ytick_5">
     <g id="line2d_14">
      <g>
       <use style="stroke:#000000;stroke-width:0.8;" x="108" xlink:href="#m6571695f85" y="81.986405"/>
      </g>
     </g>
     <g id="text_15">
      <!-- 1.0 -->
      <g transform="translate(78.735625 87.305311)scale(0.14 -0.14)">
       <use xlink:href="#DejaVuSans-31"/>
       <use x="63.623047" xlink:href="#DejaVuSans-2e"/>
       <use x="95.410156" xlink:href="#DejaVuSans-30"/>
      </g>
     </g>
    </g>
    <g id="text_16">
     <!-- dN/dt -->
     <defs>
      <path d="M 45.40625 46.390625 
L 45.40625 75.984375 
L 54.390625 75.984375 
L 54.390625 0 
L 45.40625 0 
L 45.40625 8.203125 
Q 42.578125 3.328125 38.25 0.953125 
Q 33.9375 -1.421875 27.875 -1.421875 
Q 17.96875 -1.421875 11.734375 6.484375 
Q 5.515625 14.40625 5.515625 27.296875 
Q 5.515625 40.1875 11.734375 48.09375 
Q 17.96875 56 27.875 56 
Q 33.9375 56 38.25 53.625 
Q 42.578125 51.265625 45.40625 46.390625 
z
M 14.796875 27.296875 
Q 14.796875 17.390625 18.875 11.75 
Q 22.953125 6.109375 30.078125 6.109375 
Q 37.203125 6.109375 41.296875 11.75 
Q 45.40625 17.390625 45.40625 27.296875 
Q 45.40625 37.203125 41.296875 42.84375 
Q 37.203125 48.484375 30.078125 48.484375 
Q 22.953125 48.484375 18.875 42.84375 
Q 14.796875 37.203125 14.796875 27.296875 
z
" id="DejaVuSans-64"/>
      <path d="M 25.390625 72.90625 
L 33.6875 72.90625 
L 8.296875 -9.28125 
L 0 -9.28125 
z
" id="DejaVuSans-2f"/>
      <path d="M 18.3125 70.21875 
L 18.3125 54.6875 
L 36.8125 54.6875 
L 36.8125 47.703125 
L 18.3125 47.703125 
L 18.3125 18.015625 
Q 18.3125 11.328125 20.140625 9.421875 
Q 21.96875 7.515625 27.59375 7.515625 
L 36.8125 7.515625 
L 36.8125 0 
L 27.59375 0 
Q 17.1875 0 13.234375 3.875 
Q 9.28125 7.765625 9.28125 18.015625 
L 9.28125 47.703125 
L 2.6875 47.703125 
L 2.6875 54.6875 
L 9.28125 54.6875 
L 9.28125 70.21875 
z
" id="DejaVuSans-74"/>
     </defs>
     <g transform="translate(60.0925 305.787031)rotate(-90)scale(0.14 -0.14)">
      <use xlink:href="#DejaVuSans-64"/>
      <use x="63.476562" xlink:href="#DejaVuSans-4e"/>
      <use x="138.28125" xlink:href="#DejaVuSans-2f"/>
      <use x="171.972656" xlink:href="#DejaVuSans-64"/>
      <use x="235.449219" xlink:href="#DejaVuSans-74"/>
     </g>
    </g>
   </g>
   <g id="line2d_15">
    <path clip-path="url(#pf71a751019)" d="M 138.436364 268.47721 
L 142.240909 259.943396 
L 146.045455 252.96893 
L 149.85 247.489129 
L 153.654545 243.40137 
L 157.459091 240.572152 
L 161.263636 238.845703 
L 165.068182 238.053146 
L 168.872727 238.021333 
L 172.677273 238.580621 
L 176.481818 239.571136 
L 180.286364 240.847309 
L 195.504545 246.517918 
L 199.309091 247.663017 
L 203.113636 248.591241 
L 206.918182 249.272779 
L 210.722727 249.688507 
L 214.527273 249.82813 
L 218.331818 249.688484 
L 222.136364 249.272033 
L 225.940909 248.585577 
L 229.745455 247.639156 
L 233.55 246.445141 
L 237.354545 245.017499 
L 241.159091 243.371195 
L 244.963636 241.521729 
L 248.768182 239.484765 
L 252.572727 237.275864 
L 256.377273 234.91027 
L 263.986364 229.767562 
L 271.595455 224.167712 
L 279.204545 218.211165 
L 286.813636 211.987315 
L 298.227273 202.319856 
L 336.272727 169.602477 
L 347.686364 160.198539 
L 359.1 151.168548 
L 366.709091 145.393279 
L 374.318182 139.835642 
L 381.927273 134.511772 
L 389.536364 129.435845 
L 397.145455 124.620341 
L 404.754545 120.076272 
L 412.363636 115.813379 
L 419.972727 111.840295 
L 427.581818 108.164689 
L 435.190909 104.79339 
L 442.8 101.73249 
L 450.409091 98.987434 
L 458.018182 96.563102 
L 465.627273 94.463874 
L 473.236364 92.693688 
L 480.845455 91.256095 
L 488.454545 90.154298 
L 496.063636 89.391196 
L 503.672727 88.969415 
L 511.281818 88.891337 
L 518.890909 89.159128 
L 526.5 89.774761 
L 534.109091 90.740033 
L 541.718182 92.056588 
L 549.327273 93.725927 
L 556.936364 95.749426 
L 564.545455 98.128348 
L 572.154545 100.863852 
L 579.763636 103.957003 
L 587.372727 107.408783 
L 594.981818 111.220099 
L 602.590909 115.391784 
L 610.2 119.924611 
L 617.809091 124.819296 
L 625.418182 130.076499 
L 633.027273 135.696835 
L 640.636364 141.680873 
L 648.245455 148.029143 
L 655.854545 154.742137 
L 663.463636 161.820314 
L 671.072727 169.264102 
L 678.681818 177.073899 
L 686.290909 185.250077 
L 693.9 193.792984 
L 701.509091 202.702947 
L 709.118182 211.980269 
L 716.727273 221.625236 
L 724.336364 231.638116 
L 731.945455 242.019159 
L 739.554545 252.768603 
L 747.163636 263.886668 
L 747.163636 263.886668 
" style="fill:none;stroke:#1f77b4;stroke-linecap:square;stroke-width:1.5;"/>
   </g>
   <g id="line2d_16">
    <path clip-path="url(#pf71a751019)" d="M 138.436364 268.47721 
L 142.240909 260.036409 
L 146.045455 253.338219 
L 149.85 248.309871 
L 153.654545 244.835914 
L 157.459091 242.766162 
L 161.263636 241.925368 
L 165.068182 242.123547 
L 168.872727 243.165907 
L 172.677273 244.861601 
L 176.481818 247.030768 
L 180.286364 249.509646 
L 191.7 257.46424 
L 195.504545 259.945256 
L 199.309091 262.218397 
L 203.113636 264.235898 
L 206.918182 265.964221 
L 210.722727 267.381853 
L 214.527273 268.47721 
L 218.331818 269.246735 
L 222.136364 269.693198 
L 225.940909 269.82425 
L 229.745455 269.651185 
L 233.55 269.187922 
L 237.354545 268.450173 
L 241.159091 267.454773 
L 244.963636 266.21916 
L 248.768182 264.760957 
L 252.572727 263.097668 
L 256.377273 261.246444 
L 260.181818 259.223914 
L 263.986364 257.046069 
L 271.595455 252.284788 
L 279.204545 247.075598 
L 286.813636 241.519071 
L 294.422727 235.703781 
L 305.836364 226.662395 
L 343.881818 196.094707 
L 355.295455 187.341713 
L 366.709091 178.961624 
L 374.318182 173.618425 
L 381.927273 168.491592 
L 389.536364 163.597071 
L 397.145455 158.948903 
L 404.754545 154.559478 
L 412.363636 150.439752 
L 419.972727 146.599439 
L 427.581818 143.047166 
L 435.190909 139.790616 
L 442.8 136.836642 
L 450.409091 134.19137 
L 458.018182 131.860289 
L 465.627273 129.848328 
L 473.236364 128.159916 
L 480.845455 126.799048 
L 488.454545 125.769329 
L 496.063636 125.074019 
L 503.672727 124.716072 
L 511.281818 124.698168 
L 518.890909 125.022744 
L 526.5 125.69202 
L 534.109091 126.708017 
L 541.718182 128.072584 
L 549.327273 129.787411 
L 556.936364 131.854046 
L 564.545455 134.273908 
L 572.154545 137.048302 
L 579.763636 140.178427 
L 587.372727 143.665387 
L 594.981818 147.510201 
L 602.590909 151.713809 
L 610.2 156.277079 
L 617.809091 161.200815 
L 625.418182 166.485762 
L 633.027273 172.132611 
L 640.636364 178.142002 
L 648.245455 184.514531 
L 655.854545 191.250752 
L 663.463636 198.351181 
L 671.072727 205.8163 
L 678.681818 213.646556 
L 686.290909 221.842368 
L 693.9 230.404128 
L 701.509091 239.332203 
L 709.118182 248.626934 
L 716.727273 258.288643 
L 724.336364 268.317631 
L 731.945455 278.714181 
L 739.554545 289.478557 
L 747.163636 300.611011 
L 747.163636 300.611011 
" style="fill:none;stroke:#ff7f0e;stroke-linecap:square;stroke-width:1.5;"/>
   </g>
   <g id="line2d_17">
    <path clip-path="url(#pf71a751019)" d="M 138.436364 268.47721 
L 142.240909 260.129422 
L 146.045455 253.707508 
L 149.85 249.130613 
L 153.654545 246.270459 
L 157.459091 244.960171 
L 161.263636 245.005033 
L 165.068182 246.193947 
L 168.872727 248.310481 
L 172.677273 251.14258 
L 176.481818 254.4904 
L 180.286364 258.171983 
L 191.7 269.730078 
L 195.504545 273.372594 
L 199.309091 276.773777 
L 203.113636 279.880555 
L 206.918182 282.655663 
L 210.722727 285.075199 
L 214.527273 287.126291 
L 218.331818 288.804985 
L 222.136364 290.114363 
L 225.940909 291.062923 
L 229.745455 291.663215 
L 233.55 291.930704 
L 237.354545 291.882846 
L 241.159091 291.538351 
L 244.963636 290.916591 
L 248.768182 290.037148 
L 252.572727 288.919472 
L 256.377273 287.582618 
L 260.181818 286.045063 
L 263.986364 284.324577 
L 267.790909 282.438133 
L 271.595455 280.401863 
L 279.204545 275.940032 
L 286.813636 271.050827 
L 294.422727 265.832666 
L 302.031818 260.371639 
L 313.445455 251.886051 
L 347.686364 226.082882 
L 359.1 217.837525 
L 370.513636 209.941917 
L 378.122727 204.910278 
L 385.731818 200.086748 
L 393.340909 195.487946 
L 400.95 191.128523 
L 408.559091 187.021421 
L 416.168182 183.178101 
L 423.777273 179.608731 
L 431.386364 176.322354 
L 438.995455 173.32703 
L 446.604545 170.629957 
L 454.213636 168.237577 
L 461.822727 166.155667 
L 469.431818 164.389417 
L 477.040909 162.943501 
L 484.65 161.822134 
L 492.259091 161.029123 
L 499.868182 160.567917 
L 507.477273 160.441641 
L 515.086364 160.653134 
L 522.695455 161.20498 
L 530.304545 162.099532 
L 537.913636 163.338938 
L 545.522727 164.925161 
L 553.131818 166.859998 
L 560.740909 169.145095 
L 568.35 171.781965 
L 575.959091 174.771997 
L 583.568182 178.116469 
L 591.177273 181.816559 
L 598.786364 185.873355 
L 606.395455 190.28786 
L 614.004545 195.061003 
L 621.613636 200.193643 
L 629.222727 205.686576 
L 636.831818 211.540543 
L 644.440909 217.756229 
L 652.05 224.334274 
L 659.659091 231.275269 
L 667.268182 238.57977 
L 674.877273 246.248292 
L 682.486364 254.281317 
L 690.095455 262.679294 
L 697.704545 271.442644 
L 705.313636 280.571761 
L 712.922727 290.067014 
L 720.531818 299.928747 
L 728.140909 310.157285 
L 735.75 320.752933 
L 743.359091 331.715975 
L 747.163636 337.335354 
L 747.163636 337.335354 
" style="fill:none;stroke:#2ca02c;stroke-linecap:square;stroke-width:1.5;"/>
   </g>
   <g id="line2d_18">
    <path clip-path="url(#pf71a751019)" d="M 138.436364 268.47721 
L 142.240909 260.222434 
L 146.045455 254.076797 
L 149.85 249.951355 
L 153.654545 247.705004 
L 157.459091 247.154181 
L 161.263636 248.084697 
L 165.068182 250.264348 
L 168.872727 253.455055 
L 172.677273 257.423559 
L 176.481818 261.950032 
L 180.286364 266.83432 
L 191.7 281.995916 
L 195.504545 286.799932 
L 199.309091 291.329157 
L 203.113636 295.525212 
L 206.918182 299.347106 
L 210.722727 302.768544 
L 214.527273 305.775372 
L 218.331818 308.363236 
L 222.136364 310.535528 
L 225.940909 312.301596 
L 229.745455 313.675244 
L 233.55 314.673485 
L 237.354545 315.31552 
L 241.159091 315.621929 
L 244.963636 315.614022 
L 248.768182 315.313339 
L 252.572727 314.741276 
L 256.377273 313.918792 
L 260.181818 312.866213 
L 263.986364 311.603084 
L 267.790909 310.148078 
L 271.595455 308.518938 
L 275.4 306.732457 
L 279.204545 304.804465 
L 286.813636 300.582583 
L 294.422727 295.961551 
L 302.031818 291.036068 
L 313.445455 283.254457 
L 328.663636 272.496409 
L 347.686364 259.025053 
L 359.1 251.172013 
L 370.513636 243.619776 
L 378.122727 238.793639 
L 385.731818 234.159122 
L 393.340909 229.734508 
L 400.95 225.535914 
L 408.559091 221.577575 
L 416.168182 217.872097 
L 423.777273 214.430666 
L 431.386364 211.263229 
L 438.995455 208.378653 
L 446.604545 205.784854 
L 454.213636 203.488919 
L 461.822727 201.497203 
L 469.431818 199.815416 
L 477.040909 198.448697 
L 484.65 197.401684 
L 492.259091 196.678565 
L 499.868182 196.283132 
L 507.477273 196.218825 
L 515.086364 196.488766 
L 522.695455 197.095796 
L 530.304545 198.042505 
L 537.913636 199.331255 
L 545.522727 200.964206 
L 553.131818 202.943334 
L 560.740909 205.27045 
L 568.35 207.947218 
L 575.959091 210.975166 
L 583.568182 214.3557 
L 591.177273 218.090116 
L 598.786364 222.179609 
L 606.395455 226.625285 
L 614.004545 231.428164 
L 621.613636 236.589192 
L 629.222727 242.109245 
L 636.831818 247.989136 
L 644.440909 254.229621 
L 652.05 260.8314 
L 659.659091 267.795129 
L 667.268182 275.121415 
L 674.877273 282.810826 
L 682.486364 290.863891 
L 690.095455 299.281107 
L 697.704545 308.062934 
L 705.313636 317.209807 
L 712.922727 326.722131 
L 720.531818 336.600285 
L 728.140909 346.844627 
L 735.75 357.455491 
L 743.359091 368.433191 
L 747.163636 374.059697 
L 747.163636 374.059697 
" style="fill:none;stroke:#d62728;stroke-linecap:square;stroke-width:1.5;"/>
   </g>
   <g id="line2d_19">
    <path clip-path="url(#pf71a751019)" d="M 138.436364 268.47721 
L 142.240909 260.315447 
L 146.045455 254.446085 
L 149.85 250.772097 
L 153.654545 249.139548 
L 157.459091 249.34819 
L 161.263636 251.164362 
L 165.068182 254.334749 
L 168.872727 258.599628 
L 172.677273 263.704539 
L 176.481818 269.409664 
L 184.090909 281.772908 
L 191.7 294.261755 
L 195.504545 300.22727 
L 199.309091 305.884537 
L 203.113636 311.169869 
L 206.918182 316.038548 
L 210.722727 320.46189 
L 214.527273 324.424452 
L 218.331818 327.921487 
L 222.136364 330.956693 
L 225.940909 333.540269 
L 229.745455 335.687274 
L 233.55 337.416266 
L 237.354545 338.748194 
L 241.159091 339.705507 
L 244.963636 340.311453 
L 248.768182 340.589531 
L 252.572727 340.56308 
L 256.377273 340.254966 
L 260.181818 339.687363 
L 263.986364 338.881591 
L 267.790909 337.858023 
L 271.595455 336.636014 
L 275.4 335.233882 
L 279.204545 333.668898 
L 283.009091 331.957305 
L 290.618182 328.154268 
L 298.227273 323.935302 
L 305.836364 319.396864 
L 313.445455 314.622863 
L 324.859091 307.176899 
L 359.1 284.506501 
L 370.513636 277.297635 
L 381.927273 270.43105 
L 389.536364 266.080749 
L 397.145455 261.93459 
L 404.754545 258.009094 
L 412.363636 254.318871 
L 419.972727 250.876871 
L 427.581818 247.694598 
L 435.190909 244.782294 
L 442.8 242.149097 
L 450.409091 239.803176 
L 458.018182 237.75185 
L 465.627273 236.001688 
L 473.236364 234.5586 
L 480.845455 233.427909 
L 488.454545 232.614423 
L 496.063636 232.122488 
L 503.672727 231.956043 
L 511.281818 232.118662 
L 518.890909 232.613594 
L 526.5 233.443798 
L 534.109091 234.61197 
L 541.718182 236.120575 
L 549.327273 237.971866 
L 556.936364 240.167906 
L 564.545455 242.71059 
L 572.154545 245.601655 
L 579.763636 248.8427 
L 587.372727 252.435199 
L 594.981818 256.38051 
L 602.590909 260.679884 
L 610.2 265.334481 
L 617.809091 270.345373 
L 625.418182 275.713552 
L 633.027273 281.439938 
L 640.636364 287.525388 
L 648.245455 293.970695 
L 655.854545 300.776597 
L 663.463636 307.943783 
L 671.072727 315.472894 
L 678.681818 323.364527 
L 686.290909 331.619242 
L 693.9 340.23756 
L 701.509091 349.21997 
L 709.118182 358.566928 
L 716.727273 368.278863 
L 724.336364 378.356177 
L 731.945455 388.799245 
L 739.554545 399.608422 
L 747.163636 410.784041 
L 747.163636 410.784041 
" style="fill:none;stroke:#9467bd;stroke-linecap:square;stroke-width:1.5;"/>
   </g>
   <g id="line2d_20">
    <path clip-path="url(#pf71a751019)" d="M 138.436364 268.47721 
L 142.240909 260.40846 
L 146.045455 254.815374 
L 149.85 251.592839 
L 153.654545 250.574093 
L 157.459091 251.5422 
L 161.263636 254.244027 
L 165.068182 258.405149 
L 168.872727 263.744202 
L 172.677273 269.985518 
L 176.481818 276.869297 
L 184.090909 291.645951 
L 191.7 306.527593 
L 195.504545 313.654608 
L 199.309091 320.439917 
L 203.113636 326.814525 
L 206.918182 332.72999 
L 210.722727 338.155236 
L 214.527273 343.073533 
L 218.331818 347.479738 
L 222.136364 351.377859 
L 225.940909 354.778942 
L 229.745455 357.699303 
L 233.55 360.159047 
L 237.354545 362.180868 
L 241.159091 363.789085 
L 244.963636 365.008884 
L 248.768182 365.865722 
L 252.572727 366.384883 
L 256.377273 366.59114 
L 260.181818 366.508512 
L 263.986364 366.160099 
L 267.790909 365.567967 
L 271.595455 364.753089 
L 275.4 363.735307 
L 279.204545 362.533332 
L 283.009091 361.164759 
L 286.813636 359.646095 
L 294.422727 356.21932 
L 302.031818 352.364925 
L 309.640909 348.180401 
L 317.25 343.750464 
L 328.663636 336.803583 
L 366.709091 313.235004 
L 378.122727 306.56036 
L 385.731818 302.30387 
L 393.340909 298.227634 
L 400.95 294.350696 
L 408.559091 290.689881 
L 416.168182 287.260088 
L 423.777273 284.074535 
L 431.386364 281.144979 
L 438.995455 278.481897 
L 446.604545 276.094647 
L 454.213636 273.991603 
L 461.822727 272.180276 
L 469.431818 270.667413 
L 477.040909 269.459089 
L 484.65 268.560783 
L 492.259091 267.977447 
L 499.868182 267.713563 
L 507.477273 267.773193 
L 515.086364 268.160029 
L 522.695455 268.877429 
L 530.304545 269.928452 
L 537.913636 271.31589 
L 545.522727 273.042297 
L 553.131818 275.110006 
L 560.740909 277.521161 
L 568.35 280.277725 
L 575.959091 283.381504 
L 583.568182 286.834162 
L 591.177273 290.637229 
L 598.786364 294.792119 
L 606.395455 299.300136 
L 614.004545 304.162488 
L 621.613636 309.380292 
L 629.222727 314.954583 
L 636.831818 320.886323 
L 644.440909 327.176403 
L 652.05 333.825654 
L 659.659091 340.834848 
L 667.268182 348.204704 
L 674.877273 355.935893 
L 682.486364 364.029041 
L 690.095455 372.484732 
L 697.704545 381.303515 
L 705.313636 390.485899 
L 712.922727 400.032365 
L 720.531818 409.943362 
L 728.140909 420.21931 
L 735.75 430.860606 
L 743.359091 441.867622 
L 747.163636 447.508384 
L 747.163636 447.508384 
" style="fill:none;stroke:#8c564b;stroke-linecap:square;stroke-width:1.5;"/>
   </g>
   <g id="line2d_21">
    <path clip-path="url(#pf71a751019)" d="M 138.436364 268.47721 
L 142.240909 260.501473 
L 146.045455 255.184663 
L 149.85 252.413581 
L 153.654545 252.008638 
L 157.459091 253.736209 
L 161.263636 257.323692 
L 165.068182 262.47555 
L 168.872727 268.888776 
L 172.677273 276.266497 
L 176.481818 284.328929 
L 184.090909 301.518993 
L 191.7 318.793431 
L 195.504545 327.081946 
L 199.309091 334.995297 
L 203.113636 342.459182 
L 206.918182 349.421433 
L 210.722727 355.848582 
L 214.527273 361.722613 
L 218.331818 367.037989 
L 222.136364 371.799024 
L 225.940909 376.017615 
L 229.745455 379.711333 
L 233.55 382.901828 
L 237.354545 385.613541 
L 241.159091 387.872663 
L 244.963636 389.706315 
L 248.768182 391.141914 
L 252.572727 392.206687 
L 256.377273 392.927314 
L 260.181818 393.329662 
L 263.986364 393.438606 
L 267.790909 393.277912 
L 271.595455 392.870164 
L 275.4 392.236732 
L 279.204545 391.397765 
L 283.009091 390.372213 
L 286.813636 389.177851 
L 290.618182 387.831326 
L 294.422727 386.348204 
L 302.031818 383.029354 
L 309.640909 379.326288 
L 317.25 375.330241 
L 328.663636 368.95717 
L 343.881818 360.089638 
L 362.904545 348.978687 
L 374.318182 342.53234 
L 385.731818 336.376245 
L 393.340909 332.474197 
L 400.95 328.758087 
L 408.559091 325.246035 
L 416.168182 321.954084 
L 423.777273 318.89647 
L 431.386364 316.085854 
L 438.995455 313.53352 
L 446.604545 311.249544 
L 454.213636 309.242945 
L 461.822727 307.521812 
L 469.431818 306.093411 
L 477.040909 304.964285 
L 484.65 304.140333 
L 492.259091 303.626889 
L 499.868182 303.428778 
L 507.477273 303.550377 
L 515.086364 303.99566 
L 522.695455 304.768245 
L 530.304545 305.871425 
L 537.913636 307.308208 
L 545.522727 309.081342 
L 553.131818 311.193343 
L 560.740909 313.646516 
L 568.35 316.442978 
L 575.959091 319.584674 
L 583.568182 323.073393 
L 591.177273 326.910786 
L 598.786364 331.098374 
L 606.395455 335.637562 
L 614.004545 340.52965 
L 621.613636 345.775841 
L 629.222727 351.377252 
L 636.831818 357.334916 
L 644.440909 363.649794 
L 652.05 370.322781 
L 659.659091 377.354707 
L 667.268182 384.746348 
L 674.877273 392.498426 
L 682.486364 400.611615 
L 690.095455 409.086545 
L 697.704545 417.923805 
L 705.313636 427.123945 
L 712.922727 436.687482 
L 720.531818 446.6149 
L 728.140909 456.906652 
L 735.75 467.563164 
L 743.359091 478.584837 
L 747.163636 484.232727 
L 747.163636 484.232727 
" style="fill:none;stroke:#e377c2;stroke-linecap:square;stroke-width:1.5;"/>
   </g>
   <g id="line2d_22">
    <path clip-path="url(#pf71a751019)" d="M 108 268.47721 
L 777.6 268.47721 
" style="fill:none;stroke:#000000;stroke-linecap:square;"/>
   </g>
   <g id="patch_3">
    <path d="M 108 504 
L 108 69.12 
" style="fill:none;stroke:#000000;stroke-linecap:square;stroke-linejoin:miter;stroke-width:0.8;"/>
   </g>
   <g id="patch_4">
    <path d="M 777.6 504 
L 777.6 69.12 
" style="fill:none;stroke:#000000;stroke-linecap:square;stroke-linejoin:miter;stroke-width:0.8;"/>
   </g>
   <g id="patch_5">
    <path d="M 108 504 
L 777.6 504 
" style="fill:none;stroke:#000000;stroke-linecap:square;stroke-linejoin:miter;stroke-width:0.8;"/>
   </g>
   <g id="patch_6">
    <path d="M 108 69.12 
L 777.6 69.12 
" style="fill:none;stroke:#000000;stroke-linecap:square;stroke-linejoin:miter;stroke-width:0.8;"/>
   </g>
   <g id="legend_1">
    <g id="patch_7">
     <path d="M 702.735625 226.165625 
L 769.8 226.165625 
Q 772.6 226.165625 772.6 223.365625 
L 772.6 80.92 
Q 772.6 78.12 769.8 78.12 
L 702.735625 78.12 
Q 699.935625 78.12 699.935625 80.92 
L 699.935625 223.365625 
Q 699.935625 226.165625 702.735625 226.165625 
z
" style="fill:#4c4c4c;opacity:0.5;stroke:#4c4c4c;stroke-linejoin:miter;"/>
    </g>
    <g id="patch_8">
     <path d="M 700.735625 224.165625 
L 767.8 224.165625 
Q 770.6 224.165625 770.6 221.365625 
L 770.6 78.92 
Q 770.6 76.12 767.8 76.12 
L 700.735625 76.12 
Q 697.935625 76.12 697.935625 78.92 
L 697.935625 221.365625 
Q 697.935625 224.165625 700.735625 224.165625 
z
" style="fill:#ffffff;stroke:#cccccc;stroke-linejoin:miter;"/>
    </g>
    <g id="line2d_23">
     <path d="M 703.535625 87.457812 
L 731.535625 87.457812 
" style="fill:none;stroke:#1f77b4;stroke-linecap:square;stroke-width:1.5;"/>
    </g>
    <g id="line2d_24"/>
    <g id="text_17">
     <!-- 1.6 -->
     <g transform="translate(742.735625 92.357812)scale(0.14 -0.14)">
      <use xlink:href="#DejaVuSans-31"/>
      <use x="63.623047" xlink:href="#DejaVuSans-2e"/>
      <use x="95.410156" xlink:href="#DejaVuSans-36"/>
     </g>
    </g>
    <g id="line2d_25">
     <path d="M 703.535625 108.007187 
L 731.535625 108.007187 
" style="fill:none;stroke:#ff7f0e;stroke-linecap:square;stroke-width:1.5;"/>
    </g>
    <g id="line2d_26"/>
    <g id="text_18">
     <!-- 1.8 -->
     <g transform="translate(742.735625 112.907187)scale(0.14 -0.14)">
      <use xlink:href="#DejaVuSans-31"/>
      <use x="63.623047" xlink:href="#DejaVuSans-2e"/>
      <use x="95.410156" xlink:href="#DejaVuSans-38"/>
     </g>
    </g>
    <g id="line2d_27">
     <path d="M 703.535625 128.556562 
L 731.535625 128.556562 
" style="fill:none;stroke:#2ca02c;stroke-linecap:square;stroke-width:1.5;"/>
    </g>
    <g id="line2d_28"/>
    <g id="text_19">
     <!-- 2.0 -->
     <g transform="translate(742.735625 133.456562)scale(0.14 -0.14)">
      <use xlink:href="#DejaVuSans-32"/>
      <use x="63.623047" xlink:href="#DejaVuSans-2e"/>
      <use x="95.410156" xlink:href="#DejaVuSans-30"/>
     </g>
    </g>
    <g id="line2d_29">
     <path d="M 703.535625 149.105937 
L 731.535625 149.105937 
" style="fill:none;stroke:#d62728;stroke-linecap:square;stroke-width:1.5;"/>
    </g>
    <g id="line2d_30"/>
    <g id="text_20">
     <!-- 2.2 -->
     <g transform="translate(742.735625 154.005937)scale(0.14 -0.14)">
      <use xlink:href="#DejaVuSans-32"/>
      <use x="63.623047" xlink:href="#DejaVuSans-2e"/>
      <use x="95.410156" xlink:href="#DejaVuSans-32"/>
     </g>
    </g>
    <g id="line2d_31">
     <path d="M 703.535625 169.655312 
L 731.535625 169.655312 
" style="fill:none;stroke:#9467bd;stroke-linecap:square;stroke-width:1.5;"/>
    </g>
    <g id="line2d_32"/>
    <g id="text_21">
     <!-- 2.4 -->
     <g transform="translate(742.735625 174.555312)scale(0.14 -0.14)">
      <use xlink:href="#DejaVuSans-32"/>
      <use x="63.623047" xlink:href="#DejaVuSans-2e"/>
      <use x="95.410156" xlink:href="#DejaVuSans-34"/>
     </g>
    </g>
    <g id="line2d_33">
     <path d="M 703.535625 190.204687 
L 731.535625 190.204687 
" style="fill:none;stroke:#8c564b;stroke-linecap:square;stroke-width:1.5;"/>
    </g>
    <g id="line2d_34"/>
    <g id="text_22">
     <!-- 2.6 -->
     <g transform="translate(742.735625 195.104687)scale(0.14 -0.14)">
      <use xlink:href="#DejaVuSans-32"/>
      <use x="63.623047" xlink:href="#DejaVuSans-2e"/>
      <use x="95.410156" xlink:href="#DejaVuSans-36"/>
     </g>
    </g>
    <g id="line2d_35">
     <path d="M 703.535625 210.754063 
L 731.535625 210.754063 
" style="fill:none;stroke:#e377c2;stroke-linecap:square;stroke-width:1.5;"/>
    </g>
    <g id="line2d_36"/>
    <g id="text_23">
     <!-- 2.8 -->
     <g transform="translate(742.735625 215.654063)scale(0.14 -0.14)">
      <use xlink:href="#DejaVuSans-32"/>
      <use x="63.623047" xlink:href="#DejaVuSans-2e"/>
      <use x="95.410156" xlink:href="#DejaVuSans-38"/>
     </g>
    </g>
   </g>
  </g>
 </g>
 <defs>
  <clipPath id="pf71a751019">
   <rect height="434.88" width="669.6" x="108" y="69.12"/>
  </clipPath>
 </defs>
</svg>
